<svg xmlns="http://www.w3.org/2000/svg" viewBox="0 0 598 494.3"><style>.st0{opacity:.1}.st1{fill:#d3e0f0}.st2{fill:#242424}.st3{fill:#f2f1ef}.st4{fill:#59abe3}.st5{fill:#efefee}.st6{fill:#89ccf0}.st7{fill:#dfe8eb}.st8{fill:#47b7ed}.st9{fill:#e6eaed}.st10{fill:#5dbfef}.st11{fill:#e6e4e0}.st12{fill:#a9c2e2}.st13{fill:#edc4c3}.st14{fill:#dc9795}.st15{fill:#5693b7}.st16{fill:#5383ae}.st17{fill:#7f9db8}.st18{fill:#27518d}.st19{fill:#d6afab}.st20{fill:#deb8b6}.st21{fill:#cc7472}.st22{fill:#428db5}.st23{fill:#e1b9b7}.st24{fill:#243e6c}.st25{fill:#cbddf0}.st26{fill:#fefefe}.st27{opacity:0;fill:#2a6ab8}</style><g id="Calque_1"><path class="st0 st1" d="M176.8 80.8c-6-7.6-11.8-15-18.1-23.1 7.5-1.2 14.5-2.4 21.4-3.4 12.2-1.8 24.5-3.6 36.8-5.4 2-.3 3.9-.6 5.9-.7 9.1-.1 14.7-5.6 19.6-12.4 1.3-1.9 3.1-3.4 5-5.4 5.6 2.8 11.1 5.5 16.6 8.2 16.6 8.1 33 16.7 49.9 24.2 6.2 2.7 13.5 2.9 20.3 3.9 9.9 1.5 19.9 2.7 31.2 4.2-6.5-9.6-12.3-18.1-19-28 6.8 1 12 1.7 17.3 2.7 22.2 4.2 44.5 8.3 66.7 12.8 3.8.8 7.6 2.3 10.8 4.4 10.7 7.3 20.8 15.4 31.7 22.4 9.4 6 15.4 14.9 21.7 23.6 18.4 25.2 36.8 50.3 55.1 75.4 10.8 14.7 21.4 29.5 32.3 44.1 2.1 2.9 2 5.2.8 8.2L542 334.9c-9.5 22.8-19 45.7-28.6 68.4-.7 1.6-2.3 3.3-3.9 4-34.9 14.5-69.9 28.9-104.9 43.4-33.4 13.8-103.1 43.5-104.6 43.5-1.3 0-59.3-24.7-86.9-36-8.4-3.5-16.9-6.8-25.2-10.7-2-.9-4.1-3.5-4.6-5.7-9.1-37-17.9-74-26.8-111-7.7-32.2-15.2-64.4-22.9-96.6-6-25.3-12-50.5-17.8-75.9-.5-2 .4-4.9 1.7-6.6 11.3-13.9 22.7-27.6 34.3-41.3 8-9.8 16.3-19.4 25-29.6z" id="Lunettes_Ombre"/><g id="Layer_12"><g id="XMLID_4_"><path id="XMLID_10_" d="M247.4 28.3s-34.1 19.9-89.6 23c1.1 6 5.6 4.2 5.6 4.2s71.3.3 78.2 1.6c9.1-7.8 5.8-28.8 5.8-28.8"/><path id="XMLID_12_" d="M348.3 12.5s30.5 27.7 87.6 44.4c-2.7 5.5-6.9 2.7-6.9 2.7s-60.9-8.6-82.1-17.7c0-5.6 1.4-29.4 1.4-29.4"/><g id="XMLID_43_"><path id="XMLID_44_" class="st2" d="M429.1 59.6s.1 0 .1.1h.1s.1 0 .1.1c0 0 .1 0 .1.1.1 0 .1 0 .2.1h.1c.1 0 .1.1.2.1h.2c.1 0 .2 0 .3.1h1.6c-.2-1.7-.4-3.3-.6-4.7-.1 0-.2-.1-.4-.1-1.9-.6-3.8-1.2-5.6-1.8h-.1c.1 1.9.2 3.7.3 5.5.2 0 .5.1.7.1h.3c.2 0 .3 0 .4.1.2 0 .3 0 .5.1h.1c.3 0 .5.1.7.1h.4c.1.1.2.1.3.1-.1 0-.1 0 0 0-.1 0 0 0 0 0z"/><path id="XMLID_92_" class="st2" d="M413.4 57.2c.1 0 .2 0 .3.1.3.1.7.1 1 .2.2 0 .3.1.5.1.3.1.7.1 1 .2.1 0 .3 0 .4.1.5.1.9.1 1.4.2h.2c.4.1.7.1 1.1.2.2 0 .3.1.5.1s.5.1.7.1.3.1.5.1c.3 0 .5.1.8.1.1 0 .2 0 .3.1.3 0 .6.1.9.1h.1c.3.1.7.1 1 .1h.1c-.3-2.2-.6-4.2-.9-6-.4-.1-.9-.3-1.3-.5-1-.3-1.9-.7-2.9-1-.7-.3-1.5-.5-2.2-.8-.9-.3-1.9-.7-2.8-1-.4-.2-.8-.3-1.3-.5.3 2.6.4 5.3.6 8z"/><path id="XMLID_96_" class="st2" d="M403.1 48.2c.1 1.6 0 4.2 0 7.3h.3c.7.1 1.5.3 2.2.4h.1c.7.1 1.4.2 2.1.4h.2c-.2-3.1-.3-6.2-.5-9.4-.1-.1-.3-.1-.4-.2-1-.4-2-.8-2.9-1.2-.4-.2-.9-.4-1.4-.6.2 1.6.3 2.7.3 3.3z"/><path id="XMLID_97_" class="st2" d="M396.8 48.2c.1 1.6.1 3.7.1 6.1h.3c.7.1 1.5.3 2.2.4h.1l-.6-11.7c-.1-.1-.3-.1-.4-.2-.2-.1-.4-.2-.5-.2-.5-.2-.9-.4-1.4-.6-.1 2.2 0 4.2.2 6.2z"/><path id="XMLID_102_" class="st2" d="M384.5 37.2c.3 5 .5 10 .8 15h.1c1.9.4 3.8.8 5.7 1.1h.1c-.3-2.1-.5-3.8-.5-5.1-.1-1.4 0-4.6.1-8.8-.1 0-.1-.1-.2-.1-.4-.2-.7-.3-1-.5l-2.4-1.2c-.4-.2-.8-.4-1.3-.6-.4-.2-.9-.4-1.3-.7-.1.4-.1.7-.1.9z"/><path id="XMLID_138_" class="st2" d="M372 31.7c.3 5.9.6 11.9.9 17.8h.1c1.6.4 3.2.7 4.8 1.1.1 0 .2 0 .3.1 1.6.3 3.3.7 4.9 1h.1c-.2-1.4-.3-2.6-.4-3.5-.1-2.2.1-6.9.3-12.7-.1-.1-.2-.1-.3-.2-1-.5-2-1.1-2.9-1.6-.4-.2-.7-.4-1.1-.6-.7-.4-1.3-.7-2-1.1-.4-.2-.8-.5-1.2-.7-.6-.3-1.2-.7-1.7-1-.4-.2-.8-.5-1.2-.7-.3-.2-.7-.4-1-.6.3 1.3.4 2.2.4 2.7z"/><path id="XMLID_140_" class="st2" d="M363 47.1c.1 0 .2.1.3.1.6.2 1.2.3 1.8.5.1 0 .2 0 .3.1.7.2 1.4.3 2.1.5.1 0 .1 0 .2.1l-.6-11.1c-.1-1.1 0-5.5-.2-11.1-.3-.2-.7-.4-1-.6-.2-.1-.4-.2-.5-.3-.7-.5-1.4-.9-2.1-1.4-.1-.1-.3-.2-.4-.3-.5-.4-1.1-.7-1.6-1.1-.2-.1-.4-.2-.5-.4-.1-.1-.3-.2-.4-.3.9 10.6 2.3 21.4 2.6 25.3z"/><path id="XMLID_315_" class="st2" d="M356.6 45.3h.1c.6.2 1.3.4 1.9.6.1 0 .2 0 .2.1-.5-8.8-.9-17.5-1.4-26.3-.1-.1-.2-.1-.2-.2-.1-.1-.3-.2-.4-.3l-1.2-.9c-.1-.1-.2-.2-.4-.3-.1 0-.1-.1-.2-.1.6 9.2 1.1 18.3 1.6 27.4z"/></g><g id="XMLID_76_"><path id="XMLID_77_" class="st2" d="M171 50.2c-.4 0-.9.1-1.3.1-1.1.1-2.1.2-3.2.3-.4 0-.7.1-1.1.1-.2 1.4-.4 3-.6 4.8h5.8c.2-1.7.3-3.5.4-5.3z"/><path id="XMLID_318_" class="st2" d="M183.3 48.6c-.2 0-.4.1-.5.1-.9.1-1.9.3-2.9.4-.6.1-1.3.2-1.9.3-1.1.1-2.2.3-3.3.4-.5.1-1 .1-1.5.2-.2 1.6-.4 3.5-.8 5.6h.1c3 0 6.5 0 10.4.1.2-2.4.3-4.8.4-7.1z"/><path id="XMLID_319_" class="st2" d="M193.1 48.2c0-.3.1-.8.1-1.4-.3.1-.7.1-1 .2-.8.2-1.6.3-2.5.5-.4.1-.7.1-1.1.2-.1 2.7-.3 5.4-.4 8.1 1.6 0 3.2 0 4.8.1h.1c0-3.3-.1-6 0-7.7z"/><path id="XMLID_320_" class="st2" d="M199.5 48.2c0-.9.1-1.9.1-2.8-.1 0-.2 0-.3.1-.1 0-.3.1-.4.1-.5.1-1.1.2-1.6.4-.2 3.3-.3 6.6-.5 9.9H199.4c0-3.1 0-5.8.1-7.7z"/><path id="XMLID_321_" class="st2" d="M211.4 42.4c-.2 0-.3.1-.5.1-.4.1-.7.2-1.1.3-.7.2-1.5.4-2.3.6l-1.2.3c-.3.1-.5.1-.8.2v4.3c-.1 1.7-.4 4.5-.9 7.7h.1c2 0 3.9.1 5.8.1.4-4.5.7-9.1.9-13.6z"/><path id="XMLID_326_" class="st2" d="M223.8 38.5c-.1 0-.2.1-.3.1l-.9.3c-.6.2-1.3.4-1.9.6-.4.1-.7.2-1.1.3-.6.2-1.2.4-1.9.6-.4.1-.7.2-1.1.4-.7.2-1.4.4-2 .6-.4.1-.7.2-1.1.3-.1 0-.2.1-.4.1.1 2.8.1 5.1.1 6.4-.1 1.8-.5 4.6-1 7.8H217.9c1.6 0 3.1.1 4.6.1h.3c.4-5.8.7-11.7 1-17.6z"/><path id="XMLID_327_" class="st2" d="M233.1 48.2c.1-1.6.7-7 1.5-13.9-.2.1-.5.2-.7.3-.1 0-.2.1-.3.1-.6.3-1.3.5-2 .8-.1.1-.3.1-.4.2-.6.2-1.3.5-1.9.8v.7c-.3 6.4-.7 12.8-1 19.2h.2c.8 0 1.6 0 2.3.1h.2c.8 0 1.5.1 2.2.1-.1-3.6-.2-6.6-.1-8.4z"/><path id="XMLID_328_" class="st2" d="M238 32.9c-.4 7.9-.8 15.9-1.2 23.8h.1c.4 0 .9 0 1.2.1h.2c.4 0 .7 0 1 .1h.1c-.1-3.5-.1-6.6 0-8.6.3-5.5.6-10.9.9-16.4l-.6.3c-.1.1-.2.1-.3.2-.4.1-.9.3-1.4.5z"/></g><path id="XMLID_18_" class="st3" d="M354.4 72.1c33.7-2 88.4-9.8 115.2 16.9 24.9 24.9 12.7 66.5-14.6 82.6-28 16.6-77.2 13.6-101.5-9.2-19-17.7-41.8-87.9.9-90.3 23.5-1.4 15.5-.9 7.5-.4-4.7.2-9.5.5-7.5.4"/><path id="XMLID_47_" class="st3" d="M244.9 72.1c-33.7-2-88.4-9.8-115.2 16.9-24.9 24.9-12.7 66.5 14.6 82.6 28 16.6 77.2 13.6 101.5-9.2 18.9-17.7 41.8-87.9-.9-90.3-23.5-1.4-15.5-.9-7.5-.4 4.7.2 9.5.5 7.5.4"/><path id="XMLID_48_" class="st3" d="M244.9 72.4h-.4L129.4 159c2.2 2.7 4.6 5.2 7.2 7.5 40.9-29.8 81.7-59.5 122.6-89.3-3.6-2.8-8.3-4.5-14.3-4.8"/><path id="XMLID_49_" class="st3" d="M235.8 71.9c-1.3-.1-2.3-.1-3.2-.2H232c-.3 0-.6 0-.9-.1h-1.6c-.1 0-.1 0 0 0h1.6c.3 0 .6 0 .9.1H232.6c.9 0 2 .1 3.2.2 1 .1 2.1.1 3.3.2-33.9-2.3-84.1-8-109.4 17.3-18.7 18.7-16.5 46.9-2.6 66.6l112-83.8c-1.1-.2-2.2-.3-3.3-.3"/><path id="XMLID_50_" class="st3" d="M265.7 85.1c-10.1 7.4-20.1 14.7-30.2 22.1-29.9 21.9-59.8 43.8-89.7 65.6 2.6 1.4 5.3 2.7 8.2 3.8 30.9-19.6 74.1-50 114.8-80.1-.4-4.1-1.4-8-3.1-11.4"/><path id="XMLID_51_" class="st3" d="M174.8 181.7c25.4 3.1 54.1-3.2 71-18.9 10.9-10.2 23.1-37.8 23.4-59.9-37.2 29.2-73.7 59.2-94.4 78.8"/><path id="XMLID_52_" class="st3" d="M265.7 85.1c-1.6-3.2-3.7-5.9-6.5-8-40.9 29.8-81.7 59.5-122.6 89.3 2.4 2.1 4.9 3.9 7.6 5.5.5.3 1 .6 1.6.9 29.9-21.9 59.8-43.8 89.7-65.6 10.1-7.4 20.2-14.7 30.2-22.1"/><path id="XMLID_53_" class="st3" d="M244.4 72.4h-1.2c-.4 0-.8 0-1.2-.1h-.3c-.8 0-1.7-.1-2.6-.2l-112 83.8c.7 1 1.5 2.1 2.3 3.1l115-86.6"/><path id="XMLID_55_" class="st3" d="M268.8 96.6c-40.7 30.1-83.9 60.5-114.8 80.1 6.4 2.5 13.4 4.2 20.8 5.1 20.7-19.5 57.2-49.6 94.3-78.8 0-2.3-.1-4.4-.3-6.4"/><path id="XMLID_56_" class="st3" d="M473.3 93.5c-6.2 4.6-12.5 9.1-18.7 13.7-29.4 21.5-58.9 43.1-88.3 64.6 2.6 1.4 5.4 2.7 8.3 3.9 28.5-18.2 67.1-45.2 104.5-72.7-1.5-3.3-3.4-6.5-5.8-9.5"/><path id="XMLID_58_" class="st3" d="M394.4 181.1c21.4 3.5 44.5.4 60.6-9.1 21.1-12.5 33.1-40.1 26.1-63.5-34.3 27-67.1 54.3-86.7 72.6"/><path id="XMLID_59_" class="st3" d="M454.8 79l-105.3 79.3c1.4 1.8 2.7 3.3 4.1 4.6 1 1 2.1 1.9 3.3 2.8l109.2-79.5c-3.5-2.9-7.3-5.3-11.3-7.2"/><path id="XMLID_60_" class="st3" d="M473.3 93.5c-1.1-1.4-2.4-2.8-3.7-4.2-1.2-1.1-2.4-2.2-3.6-3.2l-109.2 79.5c2.9 2.3 6.1 4.4 9.4 6.2 29.4-21.5 58.9-43.1 88.3-64.6 6.3-4.6 12.5-9.2 18.8-13.7"/><path id="XMLID_63_" class="st3" d="M451.1 77.3l-103.9 77.8c.7 1.1 1.5 2.1 2.3 3.1l105.3-79.3c-1.2-.5-2.5-1.1-3.7-1.6"/><path id="XMLID_64_" class="st3" d="M479.1 103c-37.4 27.5-76 54.5-104.5 72.7 6.3 2.5 13 4.3 19.9 5.4 19.5-18.3 52.4-45.5 86.7-72.6-.7-1.9-1.3-3.7-2.1-5.5"/><path id="XMLID_65_" class="st4" d="M354.4 72.1c33.7-2 88.4-9.8 115.2 16.9 24.9 24.9 12.7 66.5-14.6 82.6-28 16.6-77.2 13.6-101.5-9.2-19-17.7-41.8-87.9.9-90.3 23.5-1.4 15.5-.9 7.5-.4-4.7.2-9.5.5-7.5.4"/><path id="XMLID_66_" class="st4" d="M244.9 72.1c-33.7-2-88.4-9.8-115.2 16.9-24.9 24.9-12.7 66.5 14.6 82.6 28 16.6 77.2 13.6 101.5-9.2 18.9-17.7 41.8-87.9-.9-90.3-23.5-1.4-15.5-.9-7.5-.4 4.7.2 9.5.5 7.5.4"/><path id="XMLID_73_" class="st5" d="M129.6 158.8l-.2.1c2.2 2.7 4.6 5.2 7.2 7.5l.2-.1c-2.6-2.3-5-4.8-7.2-7.5"/><path id="XMLID_94_" class="st6" d="M244.5 72.4l-114.9 86.5c2.2 2.7 4.6 5.2 7.2 7.4l122.4-89.1c-3.6-2.7-8.3-4.4-14.4-4.8h-.3"/><path id="XMLID_322_" class="st5" d="M116.2 122.6c0 11.7 4.1 23.6 11 33.3l.1-.1c-6.9-9.7-11-21.5-11.1-33.2"/><path id="XMLID_323_" class="st6" d="M238.8 72.3l-72.4 1.2c-3.3.1-6.5.4-9.8 1-10.4 3-19.7 7.7-27 14.9-9.5 9.4-13.6 21.3-13.5 33.3.1 11.7 4.2 23.5 11.1 33.2l111.6-83.6"/><path id="XMLID_324_" class="st5" d="M146.1 172.6l-.2.2c2.6 1.4 5.3 2.7 8.2 3.8.1-.1.2-.1.3-.2-2.9-1.1-5.7-2.3-8.3-3.8"/><path id="XMLID_325_" class="st6" d="M265.7 85.1c-10.1 7.4-20.1 14.7-30.2 22.1-29.8 21.8-59.6 43.6-89.5 65.5 2.6 1.4 5.4 2.7 8.3 3.8 16.8-10.7 37.2-24.5 58.9-39.7.7-1.8 1.6-3.1 2.4-3.3.3-.1.6-.1.9-.1.4 0 .8.1 1.2.2 7.2-5.1 14.6-10.4 22-15.7 2.3-5.9 9.5-19.4 16.4-20.5H256.4c.9 0 1.8.2 2.6.7 1.1.6 2.1 1.6 3.1 3.1 2-1.5 4.1-3 6.1-4.5.2-4.3-.8-8.2-2.5-11.6"/><path id="XMLID_345_" class="st7" d="M205.7 180.6c-6 1-12 1.5-18.1 1.5-4.2 0-8.4-.2-12.5-.7l-.3.3c4.2.5 8.5.8 12.8.8 6.1 0 12.2-.5 18.1-1.5.1-.2 0-.3 0-.4m36.2-14.9c-5.7 4.4-12.4 7.9-19.6 10.6 0 .1.1.2.1.3 7.3-2.6 14-6.2 19.6-10.6l-.1-.3m27.2-62.8c-.2 11-3.3 23.3-7.7 34.2v.2c4.5-10.9 7.6-23.4 7.7-34.4"/><path id="XMLID_352_" class="st8" d="M208.6 151.9c-13.2 11.1-24.7 21.2-33.5 29.5 4.1.5 8.3.7 12.5.7 6.1 0 12.1-.5 18.1-1.5-.6-3.2-1.1-6.5-1.2-9.8-.4-7.4 1.5-12.4 4.1-18.9m28.7-23.6c-4.9 4-9.7 7.9-14.4 11.7 1.3 3.2 2.1 6.7 2.1 8.5v.5c0 6.8-3.5 13.2-3.7 20v.8c0 2.2.4 4.4 1 6.5 7.3-2.6 14-6.2 19.6-10.6-3.7-12.3-6.1-25.5-4.6-37.4m31.8-25.4c-1.8 1.4-3.6 2.8-5.3 4.2-.5 3.7-2.2 7.7-2.6 10.7-.3 2.6-.5 5.2-.5 7.8 0 3.7.3 7.5.8 11.1 4.3-10.5 7.5-22.8 7.6-33.8"/><path id="XMLID_353_" class="st9" d="M136.8 166.3l-.2.1c2.4 2.1 4.9 3.9 7.6 5.5.5.3 1 .6 1.6.9l.2-.2c-.6-.3-1.2-.7-1.8-1-2.6-1.6-5-3.3-7.4-5.3"/><path id="XMLID_354_" class="st10" d="M259.2 77.1l-122.4 89.1c2.3 2 4.8 3.8 7.4 5.3.6.4 1.2.7 1.8 1 29.8-21.8 59.6-43.6 89.5-65.5 10.1-7.4 20.1-14.7 30.2-22.1-1.5-2.9-3.7-5.7-6.5-7.8"/><path id="XMLID_355_" class="st9" d="M127.3 155.8l-.1.1c.7 1 1.5 2.1 2.3 3.1l.2-.1c-.9-1.1-1.7-2.1-2.4-3.1"/><path id="XMLID_356_" class="st10" d="M241.7 72.2h-2.9l-111.6 83.5c.7 1 1.5 2.1 2.3 3.1l114.9-86.5h-2.5c0-.1-.1-.1-.2-.1"/><path id="XMLID_388_" class="st9" d="M154.3 176.4c-.1.1-.2.1-.3.2 6.4 2.5 13.4 4.2 20.8 5.1l.3-.3c-7.3-.9-14.4-2.5-20.8-5"/><path id="XMLID_412_" class="st10" d="M213.3 136.7c-21.7 15.2-42.1 29.1-58.9 39.7 6.4 2.4 13.4 4.1 20.8 5 8.8-8.3 20.3-18.4 33.5-29.5.2-.4.3-.8.5-1.2.6-1.7 2.2-9.5 4.1-14m26.5-18.9c-7.4 5.3-14.8 10.6-22 15.7 2.1.8 3.9 3.5 5.1 6.5 4.7-3.8 9.5-7.8 14.4-11.7.4-3.1 1-6.2 2-9.1.1-.4.3-.9.5-1.4m29-21.2c-2 1.5-4.1 3-6.1 4.5.1.1.1.2.2.4 1 1.6 1.1 3.6.9 5.6 1.8-1.4 3.6-2.8 5.3-4.2v-.2c0-2.1-.1-4.2-.3-6.1"/><path id="XMLID_416_" class="st6" d="M411.6 138.6c-15 11-30.1 22-45.1 33 2.7 1.4 5.5 2.7 8.4 3.9 10.7-6.8 22.8-14.9 35.8-23.8 0-4.6.2-8.9.9-13.1m61.7-45.1c-6.2 4.6-12.5 9.1-18.7 13.7-7 5.1-14 10.2-21 15.4.9 3.9 1.6 7.7 2.3 11.6 14.2-10 28.8-20.6 43.3-31.2-1.6-3.3-3.5-6.5-5.9-9.5"/><path id="XMLID_419_" class="st7" d="M394.7 180.8l-.3.3c3.8.6 7.6 1 11.4 1.2 0-.1.1-.2.1-.3-3.7-.2-7.4-.6-11.2-1.2m88.4-55.9c-1 18.6-11.9 37.1-28 46.7-5.5 3.3-11.9 5.8-18.7 7.5 0 .1 0 .2-.1.3 6.8-1.7 13.2-4.3 18.8-7.5 16.2-9.6 27-28.2 28-47"/><path id="XMLID_422_" class="st8" d="M410.1 166.9c-5.7 5-10.9 9.7-15.4 13.9 3.7.6 7.5 1 11.3 1.2.2-.4.3-.7.5-1.1 1.9-4.4 3-9.1 3.6-14m71-58.5c-15.3 12.1-30.3 24.2-44 35.6 1.2 11.8 1.1 23.5-.8 35.1 6.8-1.7 13.2-4.3 18.7-7.5 16.1-9.6 27-28.1 28-46.7.3-5.5-.3-11.1-1.9-16.5"/><path id="XMLID_423_" class="st6" d="M454.8 79l-99.6 75c.1 1.7.1 3.5.1 5.2V164.1c.5.5 1.1.9 1.7 1.4 20.3-14.8 40.6-29.6 60.9-44.3.1-.2.3-.5.4-.7 3.4-5.5 6.4-8.5 8.8-8.5.8 0 1.5.3 2.2.9l36.6-26.7c-3.3-2.9-7.1-5.3-11.1-7.2"/><path id="XMLID_426_" class="st10" d="M417.9 121.1c-20.3 14.8-40.6 29.6-60.9 44.3 2.9 2.3 6.1 4.4 9.5 6.2 15-11 30.1-22 45.1-33 .9-5.9 2.8-11.6 6.3-17.5m48.1-35l-36.6 26.7c1.6 1.3 2.9 4.2 4 8.8v.1c0 .2.1.4.1.6 7-5.1 14-10.2 21-15.4 6.2-4.6 12.5-9.1 18.7-13.7-1.1-1.4-2.4-2.8-3.7-4.2-1.1-.9-2.3-1.9-3.5-2.9"/><path id="XMLID_427_" class="st10" d="M451.1 77.3l-96.2 72c.1 1.5.2 3 .3 4.6l99.6-75c-1.2-.5-2.5-1.1-3.7-1.6"/><path id="XMLID_433_" class="st10" d="M410.6 151.7c-12.9 8.9-25.1 16.9-35.8 23.8 6.3 2.5 13 4.2 19.9 5.3 4.5-4.2 9.6-8.8 15.4-13.9.4-3.3.6-6.6.5-9.8v-.2-5.2m68.5-48.7c-14.5 10.6-29.1 21.2-43.3 31.2.5 3.3 1 6.5 1.3 9.8 13.7-11.3 28.7-23.5 44-35.6-.6-1.8-1.2-3.6-2-5.4"/><path id="XMLID_440_" class="st11" d="M242 166c-5.7 4.4-12.4 8-19.6 10.6.7 2.3 1.6 4.5 2.8 6.6 10.9-3.2 16.5-7.1 19.5-9.2-1-2.7-1.9-5.3-2.7-8m113.3-1.6c0 3.7.2 7.6.6 11.4 6.3 4 19.3 10.4 46.5 12.3 1.3-1.8 2.5-3.8 3.4-5.8-3.8-.2-7.7-.6-11.4-1.2-6.9-1.1-13.6-2.9-19.9-5.4-2.9-1.1-5.7-2.4-8.3-3.9-3.4-1.8-6.6-3.9-9.4-6.2l-1.5-1.2M153.6 75c-11.5 2.6-22.2 8.4-30.6 16.9-7.3 7.4-13.6 17.8-14.4 30.1v.9c-.1-1.7-.2-3.5-.2-5.4v-2.8 2.9c0 29.2 14.3 47.7 14.3 47.7s19.7 23.2 61.6 23.2c1.5 0 3 0 4.5-.1 6.9-.3 13-.8 18.3-1.5-.6-2-1-4-1.4-6-6 1-12.1 1.5-18.1 1.5-4.3 0-8.6-.3-12.8-.8-7.3-.9-14.4-2.6-20.8-5.1-2.9-1.1-5.6-2.4-8.2-3.8-.5-.3-1.1-.6-1.6-.9-2.7-1.6-5.3-3.5-7.6-5.5-2.6-2.3-5-4.8-7.2-7.5-.8-1-1.6-2-2.3-3.1-6.9-9.8-10.9-21.6-11-33.3v-.5c0-11.9 4.1-23.7 13.5-33.1 6.6-6.3 14.8-10.8 24-13.8m126.7-3.4l-34.4.6c17 1.5 23.2 14.2 23.2 29.8v1c-.1 11-3.2 23.5-7.7 34.4.2 1.7.5 3.4.8 5.1v.5c.5 3 1.2 6.2 2 9.4 6.4-11.9 12.3-29.9 12.7-55.7l2.1-2.4v-3.4c.2-5.7.2-12.7 1.3-19.3m22.8-1.3h-.9c-.3 5.6-.5 11-.5 16.3h1.3c5.8.2 12.1 2.7 18 9.9.3 21.8 4.6 38 9.7 49.7-.4-16.5-6.8-34.7-.4-49.3 1.2-12.5 7.1-22.3 20.5-24.5.1-.1.3-.2.4-.3l-39.5-.6-8.6-1.2M431.2 63h.3c16.3.4 32 6.8 43.4 18.5 7.3 7.4 13.6 17.8 14.4 30.1.1 2 .2 4 .2 6 0 1.8-.1 3.6-.2 5.4v-.9c-.8-12.2-7.1-22.7-14.4-30.1-6.9-7-15.4-12.2-24.6-15.2 7.3 2.9 13.8 6.9 19.3 12.3 9.4 9.4 13.5 21.2 13.5 33.1 0 1 0 1.9-.1 2.9-.9 18.8-11.8 37.4-28 47-5.5 3.3-11.9 5.8-18.8 7.5-.4 2.3-.8 4.6-1.3 6.9 27.3-5.8 40.3-21.1 40.3-21.1s14.3-18.6 14.3-47.7c0-2-.1-4-.2-6.1-.8-12.2-7.1-22.7-14.4-30.1-11.4-11.6-27.1-18.1-43.4-18.5h-.3"/><path id="XMLID_441_" class="st3" d="M123 91.9c11.4-11.6 27.1-18.1 43.4-18.5L286 71.5l8.8-1.2h8.1l8.8 1.2 119.6 2c16.3.4 32 6.8 43.4 18.4 7.3 7.4 13.6 17.8 14.4 30.1v.9c.2-3.6.2-7.4 0-11.3-.8-12.2-7.1-22.7-14.4-30.1-11.4-11.6-27.1-18.1-43.4-18.5l-119.6-2.2-8.8-1.5h-8.1l-8.8 1.5-119.6 2.1c-16.3.4-32 6.9-43.4 18.5-7.3 7.4-13.6 17.9-14.4 30.1-.3 3.9-.3 7.7 0 11.3v-.9c.9-12.2 7.2-22.6 14.4-30"/></g></g><g id="Layer_11" class="st0"><path class="st12" d="M218.4 136.7c10.4 10.1 20.5 19.9 30.7 29.7.5-.1 1.1-.2 1.6-.3.8-5.3 1.7-10.5 2.3-15.8 1.1-8.8 2.8-17.7 2.7-26.6-.1-8.3 4.3-13.9 8.8-20.6 9.5 11.7 18.8 23.1 28.1 34.4.5-.3 1-.5 1.5-.8.3-1 .8-2 .9-3.1.4-10.9.7-21.9 1-32.9.3-10.6.4-21.3 1.1-31.8.2-3.7 1.9-7.3 3.3-12.3 14.5 13.9 28.4 27.2 42.9 41.1 3.9-5.2 7.8-10.1 11.4-15.1 7.8-10.8 7.7-10.8 15 .1 13.3 20 26.6 39.9 40 59.9.9 1.3 2 2.5 3.7 4.7 5.8-11.9 11.1-22.8 16.7-34.2 5 5.7 9.7 10.9 14.3 16.2 7.7 8.9 15.3 17.8 22.9 26.8 9 10.6 17.9 21.2 27 31.8 6.9 8.1 13.9 16 20.8 24 9.5 11 18.9 22.2 28.3 33.2 6.6 7.7 13.1 15.4 19.9 22.8 3 3.2 3.1 6.3 1.6 10-11.4 27.5-22.8 55-34.2 82.6-5.9 14.2-11.8 28.4-17.9 42.6-.7 1.7-2.5 3.4-4.2 4.1-16.7 7.2-33.5 14.2-50.4 21.1-2.3.9-5.3 1.3-7.6.6-25.5-7.8-50.8-15.8-76.3-23.7-28.9-9-57.8-17.9-86.7-27-1.3-.4-2.6-1.2-3.5-2.2-5.3-5.9-10.7-11.8-15.8-17.9-1-1.2-1.5-3.3-1.5-5-.4-13.4-.2-26.9-1.2-40.3-.7-9.3-2.4-18.5-6.6-27.2-10.7-22.2-20.6-44.7-30.8-67.1-3.3-7.2-6.3-14.5-9.4-21.8-.5-1.2-.9-2.5-.9-3.8-.1-18 0-36 0-54 .1-.6.4-1.4.5-2.2z" id="XMLID_7_"/></g><g id="Layer_10"><g id="XMLID_11_"><path id="XMLID_93_" class="st3" d="M235.8 71.9c-1.1-.1-2.3-.1-3.2-.2.8 0 1.9.1 3.2.2"/><path id="XMLID_95_" class="st3" d="M229.9 71.5h-.3.3"/><path id="XMLID_137_" class="st3" d="M232.1 71.6h-.2.2"/><path id="XMLID_141_" class="st3" d="M231 71.6h-.5.5"/><path id="XMLID_142_" class="st3" d="M229.4 71.5"/><path id="XMLID_143_" class="st3" d="M229.7 71.5h-.2.2"/><path id="XMLID_144_" class="st3" d="M229.4 71.5c-.1 0-.1 0 0 0"/><path id="XMLID_145_" class="st3" d="M230.5 71.6h-.6c.2-.1.4-.1.6 0"/><path id="XMLID_146_" class="st3" d="M235.8 71.9c1.1.1 2.2.1 3.3.2-1.3-.1-2.4-.2-3.3-.2"/><path id="XMLID_147_" class="st3" d="M245.3 72.4h-.4.4"/><path id="XMLID_148_" class="st3" d="M231.9 71.6c-.3 0-.6 0-.9-.1.2.1.5.1.9.1"/><path id="XMLID_149_" class="st3" d="M245.3 72.4"/><path id="XMLID_150_" class="st3" d="M232.6 71.7h-.4.4"/><path id="XMLID_151_" class="st3" d="M244.5 72.4h.4-.4"/><path id="XMLID_152_" class="st3" d="M244.9 72.4h-.4.4"/><path id="XMLID_153_" class="st3" d="M242 72.2h-.3.3"/><path id="XMLID_154_" class="st3" d="M243.7 72.3h-.5.5"/><path id="XMLID_155_" class="st3" d="M244.4 72.4h-.1.1"/><path id="XMLID_156_" class="st3" d="M239.1 72.1c.9.1 1.8.1 2.6.2-.9-.1-1.8-.2-2.6-.2"/><path id="XMLID_157_" class="st3" d="M241.7 72.2h.3c.4 0 .8 0 1.2.1H244.4c-1.7-.1-3.5-.2-5.4-.3.9.1 1.8.2 2.7.2"/><path id="XMLID_158_" class="st3" d="M244.4 72.4h.1-.1"/><path id="XMLID_159_" class="st3" d="M243.2 72.3c-.4 0-.8 0-1.2-.1.4 0 .8.1 1.2.1"/><path id="XMLID_160_" class="st3" d="M244.3 72.4h-.6c.2-.1.4-.1.6 0"/><path id="XMLID_161_" class="st3" d="M363.5 71.9c1.3-.1 2.3-.1 3.2-.2-.9 0-2 .1-3.2.2"/><path id="XMLID_162_" class="st3" d="M354.9 72.4h.1-.1"/><path id="XMLID_163_" class="st3" d="M367.2 71.6h.2-.2"/><path id="XMLID_164_" class="st3" d="M369.9 71.5"/><path id="XMLID_165_" class="st3" d="M355.6 72.3h.5-.5"/><path id="XMLID_166_" class="st3" d="M357.3 72.2h.3-.3"/><path id="XMLID_167_" class="st3" d="M368.3 71.6h.5-.5"/><path id="XMLID_168_" class="st3" d="M369.4 71.5h.3-.3"/><path id="XMLID_169_" class="st3" d="M368.8 71.6h.6c-.2-.1-.4-.1-.6 0"/><path id="XMLID_170_" class="st3" d="M356.1 72.3c.4 0 .8 0 1.2-.1-.4 0-.8.1-1.2.1"/><path id="XMLID_171_" class="st3" d="M367.4 71.6c.3 0 .6 0 .9-.1-.2.1-.5.1-.9.1"/><path id="XMLID_172_" class="st3" d="M355 72.4h.6c-.2-.1-.4-.1-.6 0"/><path id="XMLID_173_" class="st3" d="M366.7 71.7h.4-.4"/><path id="XMLID_174_" class="st3" d="M357.6 72.2c1.8-.1 3.9-.2 5.9-.3-1.6.1-3.5.2-5.9.3"/><path id="XMLID_175_" class="st3" d="M354 72.4h.4-.4"/><path id="XMLID_176_" class="st3" d="M354 72.4"/><path id="XMLID_177_" class="st3" d="M354.4 72.4h.5-.5"/><path id="XMLID_178_" class="st3" d="M369.9 71.5c.1 0 .1 0 0 0"/><path id="XMLID_179_" class="st3" d="M369.6 71.5h0"/><path id="XMLID_182_" class="st8" d="M245.1 72.4h.2-.2m-.2 0h.3-.3"/><path id="XMLID_183_" class="st8" d="M245.3 72.4"/><path id="XMLID_184_" class="st8" d="M244.5 72.4h.4-.4"/><path id="XMLID_185_" class="st8" d="M244.5 72.4h.4-.4"/><path id="XMLID_188_" class="st10" d="M244.5 72.4h-.1.1m-2.6-.2h-.2H244.5c-.9.1-1.7.1-2.6 0"/><path id="XMLID_189_" class="st10" d="M244.4 72.4h.1-.1"/><path id="XMLID_192_" class="st10" d="M242.7 72.3h.6-.6m-.7-.1h.7-.7"/><path id="XMLID_195_" class="st10" d="M243.9 72.3h.4c-.1.1-.3 0-.4 0m-.2 0h.2-.2"/><path id="XMLID_196_" class="st9" d="M269.1 102.7v.2-.2"/><path id="XMLID_197_" class="st9" d="M394.4 181.1l.3-.3"/><path id="XMLID_198_" class="st13" d="M389.5 310.3c9.6-18 15.5-37 21.7-56.3 6.1-19.3 14.4-37.9 20.8-57.1 8.1-24.3 7.1-50 1.4-75-3.1-13.4-8.1-12.8-15.1-1.5-7.3 11.9-7.8 22.8-7.7 36.6.2 14.8-3.6 31.7-17.9 39.8-10.4 5.9-28.7.2-34-10.5-3.6-7.4-3.4-18.5-3.5-27-.1-14.6-3-29.6-2.2-44.1.4-6.6 1.3-14.3 3.6-20.4 2.1-5.7 10.1-13.3 7.6-19.9-6.5-17.1-28.2 12.6-31.9 18.4-12.8 20.1 4.8 49-4.5 70.3-4.1 9.2-8.3 1.2-11.1-4.9-4.7-10-7.6-21.1-10.2-31.7-5-20.3-5.6-37.8-4.3-58.1.4-6 1.8-12.9-5.2-15.3-4.5-1.5-8.2.8-11 4.2-6.9 8.2-6.8 23.1-6.9 33.2-.1 11.8 1 23.7 3.1 35.3 2.5 14 7.3 28.1 9 42.1 1.3 10 .2 26.5-12 13.9-9.8-10.2-14.6-26.1-17-39.6-1.4-7.9-2.2-16.3-1.1-24.3.6-4.8 4.6-12.1 1.8-16.7-8.7-14.1-21.6 11.5-23.6 17.7-6.7 20.5 1.8 46.8 9.7 66.2 2.4 6 14.3 23.4 7.5 29.4-7.2 6.3-18-12.1-21.1-16.4-6.1-8.6-14.5-18.4-14.1-29.4.3-6.9 3.9-13.5 3.7-20.5-.1-3.9-3.7-16.6-9.4-15.1-3 .8-5.6 14.9-6.6 17.3-2.9 7.1-5 12.2-4.6 20.1.7 14.4 6.7 28.6 12.7 41.5 10.9 23.2 25.9 44.4 38.6 66.5 6.5 11.3 8.5 23.8 9.4 36.7.4 5.2.9 10.8.2 16-.5 4.2-2.7 8.3-2.7 12.4.1 6.5 5.5 12.7 9.4 17.4 2.4 2.8 5 5.5 7.5 8.2 4 4.2 4 5 9.2 4.3 8.1-1.1 18.3-8.1 25.6-11.8 9.6-4.9 19-10.3 28.1-16.1 16.8-10.7 32.5-22.6 47.1-35.8 3.7-7 .3-3.8-2.2-.6-2.3 3-3.8 6.1 2.2.6"/><path id="XMLID_199_" class="st14" d="M399.6 195.3c-5.6 6.2-13.1 8.9-21.1 8.9-4.9 0-10-1-14.9-2.9 3 5 3 12 7 17 11-6 22-11 29-22v-1"/><path id="XMLID_200_" class="st14" d="M305.6 180.3c0 1.9-1.7 2.9-1.2 4.6-1 3.9-2.7 8.6.2 12.4h4v3c.3-.1.7-.2 1-.2 1.1 0 2 .6 2.7 1.2s1.1 1.2 1.3 1.2c0 0 .1 0 .1-.2 3.9-9-7.1-14-8.1-22"/><path id="XMLID_201_" class="st14" d="M280.6 205.3h-3c-3 5-2 14 5 16 2 0 6-1 6-2 1-6-5-9-8-14"/><path id="XMLID_202_" class="st14" d="M272.4 203.2c-1.8 0-2.9 2.4-2.9 3.1-2.6 6 0 19.3 5.1 19.3.9 0 1.8-.4 2.9-1.3 3.9-2.9-10.3-13.5-3.5-20.5-.6-.4-1.1-.6-1.6-.6"/><path id="XMLID_203_" class="st14" d="M237.3 231.4c-.2 5 3.5 8.4 6.9 8.4 1.2 0 2.4-.4 3.4-1.4 2-3-6-2-9-4-.6-.6-1.1-1.8-1.3-3"/><path id="XMLID_204_" class="st14" d="M252.4 243.1c5.4 8.8 14.4 14.4 21.1 23.3 3.8 6.1 7.7 12.2 12.8 17.8 3.3 4.8-.8 13.9 2.4 14.2h.3c12.4 0 .1-20.7-4.6-27.1-9.1-11.2-22.3-17.7-32-28.2"/><path id="XMLID_205_" class="st14" d="M316.6 209.3c0 5-1 11 2 15 15 23 6 47-6 68 13-11 18-28 18-43 0-13-2-29-14-40"/><path id="XMLID_206_" class="st14" d="M337.5 108c-3.3.5-6.6 1.1-9.9 2v2.3c3.1-2.2 6.5-3.5 9.9-4.3"/><path id="XMLID_207_" class="st14" d="M327.7 116.3v.9c4-.4 8.1-.6 12.1-.6 1.9 0 3.7 0 5.6.1v-.1c-5.8-.2-11.8-.3-17.7-.3"/><path id="XMLID_208_" class="st14" d="M214.4 166.5c-3.4.5-6.7 1.2-9.9 2.3v1.1c3.3-.9 6.6-1.5 9.9-3v-.4"/><path id="XMLID_209_" class="st14" d="M211.2 164.3c-2.3.3-4.5.9-6.6 1.7v.3c2.2-.6 4.4-1.3 6.6-2"/><path id="XMLID_210_" class="st14" d="M345.7 107.2c-2.8 0-5.5.2-8.2.8 2.8-.4 5.6-.7 8.4-.7v-.1h-.2"/><path id="XMLID_211_" class="st14" d="M280.6 111.3h-.5.5"/><path id="XMLID_212_" class="st14" d="M288.2 101.9c-2.9.8-5.8 1.7-8.6 2.7 0 .4.1.8.1 1.3 2.8-1.3 5.6-2.7 8.5-4"/><path id="XMLID_213_" class="st14" d="M305.1 304.6c-16 0-30 12.4-33.2 30.9.3-.4.7-.6.7-1.2 0 2.7-.8 5.4-2.4 7.3 2.2.2 4.4.3 6.7.3 17.7 0 36.4-7.1 45.7-20.7-4 2-7 4-12 4 9-4 5-19 1-20-2.2-.4-4.4-.6-6.5-.6"/><path id="XMLID_214_" class="st14" d="M241.6 227.3c-3 7 7 3 9 10 1-1 3-2 3-3-2-6-6-6-12-7"/><path id="XMLID_215_" class="st14" d="M336.9 170.7c-1 0-2.1.2-3.3.6-1 0-4.7.9-4.1 4.6 1.1-.5 2.2-.7 3.1-.7 5.2 0 7.9 6 12 10.1.4 0 1.1.2 1.8.2 1 0 1.8-.4 1.2-2.2-2.6-5.2-4.5-12.6-10.7-12.6"/><path id="XMLID_216_" class="st14" d="M308.7 179.4c1.7 8.4 11.6 14.3 6.8 21.9h4c4-4 2-9-2-13-1-1 0-3 1-4-3.9-1-5.9-3.9-9.8-4.9"/><path id="XMLID_227_" class="st15" d="M433.29999999999995 121.60000000000002"/><path id="XMLID_228_" class="st14" d="M427.6 111.9v1.4c-2 11 1 24 9 33 .3 0 .5.1.7.2-.7-8.2-2-16.4-3.9-24.5v-.1c-1.6-6.6-3.5-9.7-5.8-10"/><path id="XMLID_244_" class="st16" d="M356.90000000000003 94.20000000000002"/><path id="XMLID_245_" class="st17" d="M355.3 159.2"/><path id="XMLID_246_" class="st18" d="M356 175.7c.2 1.2.3 2.4.6 3.5-.3-1.1-.5-2.2-.6-3.5"/><path id="XMLID_247_" class="st19" d="M355.3 164.4c0 3.7.2 7.6.6 11.4-.4-3.8-.5-7.7-.6-11.4"/><path id="XMLID_248_" class="st20" d="M355.3 164.1v0"/><path id="XMLID_249_" class="st17" d="M355.3 159.2v0"/><path id="XMLID_250_" class="st14" d="M364.8 77.7c-.1.7-.4 1.2-1.2 1.6-7.7 7.7-15.4 17.1-17.6 27.9v.1c-.6 3-.8 6.1-.5 9.3v.1c0 .2 0 .4.1.6 2 18 8 36 6 55 0 .7.2 1.4.5 2 .9 1.9 3 3.5 4.5 5-.2-1.1-.4-2.3-.6-3.5-.5-3.7-.6-7.7-.6-11.4v-.3V159.2c0-1.7-.1-3.5-.1-5.2-.1-1.5-.2-3-.3-4.6-.7-9.6-1.9-19.3-1.9-28.8 0-1.8 0-3.6.1-5.4.4-6.6 1.3-14.3 3.6-20.4 2.1-5.4 7.8-11.5 8-17.1"/><path id="XMLID_251_" class="st21" d="M345.5 116.6v.1-.1"/><path id="XMLID_252_" class="st21" d="M346 107.2l-.1.1h.1v-.1"/><path id="XMLID_261_" class="st22" d="M261.20000000000005 117.80000000000001"/><path id="XMLID_266_" class="st19" d="M262.3 142.5"/><path id="XMLID_267_" class="st18" d="M264.3 152.2c2.6 10.2 6.7 20.5 13.4 28.2-6.6-7.7-10.8-18.1-13.4-28.2"/><path id="XMLID_268_" class="st19" d="M262.3 142.8c.5 3 1.2 6.2 2 9.4-.8-3.2-1.4-6.4-2-9.4"/><path id="XMLID_269_" class="st14" d="M263.8 107c-.1.1-.1.2-.2.3-8 12-7 27-7 40 0 1 2 4 3 5 5.7 9.5 7.8 22.5 18.2 28.1-6.7-7.7-10.8-18.1-13.4-28.2-.8-3.2-1.5-6.3-2-9.4v-.5c-1-5.4-1.6-11-1.6-16.5 0-2.6.1-5.2.5-7.8.3-3.3 2-7.3 2.5-11"/><path id="XMLID_279_" class="st18" d="M360.9000000000001 189.5c4.9 5.9 13.8 9.6 21.9 9.6 3.4 0 6.7-.7 9.5-2.1-2.8 1.4-6.1 2.1-9.5 2.1-8.1 0-17-3.7-21.9-9.6"/><path id="XMLID_280_" class="st14" d="M360.9 189.5c.9 2.2 1.9 4.2 3.2 6 2.2 3.1 5 5.4 9.5 5.8 2.1.4 4.1.6 6.2.6 9.2 0 17.4-4.3 21.3-12.1-2.2 2.6-4.9 4.9-8 6.7-.1.1-.3.2-.4.2h-.1c-2.8 1.4-6.1 2.1-9.5 2.1-8.4.3-17.3-3.4-22.2-9.3"/><path id="XMLID_281_" class="st22" d="M410.1 166.9c-.6 4.8-1.7 9.6-3.6 14 1.9-4.4 3-9.2 3.6-14"/><path id="XMLID_282_" class="st15" d="M410.6 157.1c0 3.2-.1 6.5-.5 9.8.4-3.2.6-6.5.5-9.8"/><path id="XMLID_283_" class="st14" d="M410.6 157.2c0 3.2-.1 6.5-.5 9.8-.6 4.8-1.7 9.6-3.6 13.9 4.8-5.7 7.7-12.4 5.1-19.6-.4-1.3-.7-2.7-1-4.1"/><path id="XMLID_284_" class="st18" d="M301.7 86.6c0 13.3 1.4 26 4.9 40.1.1.2.1.4.2.6-.1-.2-.1-.4-.2-.6-3.5-14-4.9-26.8-4.9-40.1"/><path id="XMLID_285_" class="st19" d="M302.2 70.3c-.3 5.6-.5 11-.5 16.3 0-5.3.2-10.7.5-16.3"/><path id="XMLID_286_" class="st23" d="M302.3 68.7c0 .5-.1 1-.1 1.6 0-.5.1-1 .1-1.6"/><path id="XMLID_289_" class="st18" d="M316.9 158.7c1.9 4.1 4.4 9 7.1 9 .2 0 .4 0 .6-.1-.2.1-.4.1-.6.1-2.7-.1-5.2-4.9-7.1-9m-.1-.2"/><path id="XMLID_290_" class="st14" d="M302.3 68.7c-6.6 29.2-.8 58.3 9.3 86.6 2 5 6 11 13 13v-.8c-.2.1-.4.1-.6.1-2.7 0-5.2-4.9-7.1-9v-.1c-4.6-9.8-7.5-20.6-10.1-31.1-.1-.2-.1-.4-.2-.6-3.5-14.1-4.8-26.9-4.9-40.1 0-5.3.2-10.7.5-16.3 0-.6.1-1.1.1-1.7"/><path id="XMLID_299_" class="st18" d="M256.8 214.4l-.3.3c-.3.3-.6.5-.9.7.3-.2.6-.4.9-.7l.3-.3m-13-4.5c2.6 3 5.5 5.5 8.3 6-2.7-.5-5.6-3-8.3-6"/><path id="XMLID_300_" class="st14" d="M243.8 209.9c1.2 2.8 3.9 5.5 5.8 6.4.7.7 1.6 1 2.5 1 1.8 0 3.6-1.2 4.7-2.9l-.3.3c-.3.3-.6.5-.9.7-.8.4-1.6.6-2.4.6-.3 0-.6 0-1-.1-2.8-.5-5.7-3-8.4-6"/><path id="XMLID_301_" class="st18" d="M280 182.9c2.7 2.6 4.8 3.7 6.5 3.7H286.8h-.3c-1.6 0-3.7-1.1-6.5-3.7"/><path id="XMLID_302_" class="st14" d="M280.1 182.9c1.5 2.1 3.1 3.8 5.4 3.8.4 0 .8-.1 1.3-.2h-.2c-1.7.1-3.8-1-6.5-3.6"/><path id="XMLID_303_" class="st18" d="M356.5 179.3c.5 2.5 1.2 4.8 2.2 6.9.6 1.2 1.3 2.3 2.2 3.3-.9-1-1.6-2.1-2.2-3.3-1-2.1-1.7-4.4-2.2-6.9"/><path id="XMLID_304_" class="st14" d="M352 174.3c-.8 8.5 4.4 17.1 12.1 21.2-1.2-1.8-2.2-3.8-3.2-6-.9-1-1.6-2.2-2.2-3.3-1-2.1-1.7-4.4-2.2-6.9-1.5-1.6-3.6-3.1-4.5-5"/><path id="XMLID_308_" class="st21" d="M352 174.3c.9 1.9 3 3.5 4.5 5-1.5-1.6-3.6-3.1-4.5-5"/><path id="XMLID_309_" class="st24" d="M360.9 189.5"/><path id="XMLID_310_" class="st21" d="M360.9 189.5c.9 2.2 1.9 4.2 3.2 6-1.2-1.8-2.2-3.8-3.2-6"/><path id="XMLID_311_" class="st18" d="M412.3 250.6c-.4 1.1-.7 2.3-1.1 3.4-5.2 16.4-10.2 32.5-17.5 48 7.3-15.5 12.3-31.6 17.5-48 .4-1.2.7-2.3 1.1-3.4"/><path id="XMLID_312_" class="st14" d="M421.9 224.2c-.7.8-1.5 1.5-2.4 2.1-5 9-9 19-13 29-9 19-21 35-26 58-.8 2.5-2 4.9-3.2 7.5 3.8-3.1 7.5-6.3 11.1-9.5l-.1.1-.2.2c-1.4 1.2-2.2 1.7-2.5 1.7-.6 0 .5-1.8 1.9-3.6l.1-.1.1-.1c1.4-1.7 2.9-3.4 3.5-3.4.4 0 .2 1.1-1.3 4 1.5-2.7 2.8-5.5 4.1-8.3 7.3-15.5 12.3-31.6 17.5-48 .4-1.1.7-2.3 1.1-3.4 2.6-8.7 6-17.4 9.3-26.2"/><path id="XMLID_313_" class="st14" d="M358.2 69.5c-4 0-9.1 3.8-13.6 8.5h.8c4 0 6.9 1.5 9.2 5.3 1.9-4.7 9.8-4.1 9.3-9.7-1.5-2.9-3.4-4.1-5.7-4.1"/><path id="XMLID_314_" class="st14" d="M294.3 52.9c-1.8 0-3.5.6-5 1.6-1.5 2.1-2.4 4.5-2.6 7.2 0 .5-.1.9-.1 1.4 1.5-1 3.3-1.8 4.9-1.8s3.1.7 4.1 2.7c2-2.9.1-7.8 3.7-9.8-.6-.4-1.4-.8-2.2-1.1-.1 0-.2-.1-.3-.1-.9 0-1.7-.1-2.5-.1"/><path id="XMLID_601_" class="st17" d="M257.00000000000017 97.2c.9 0 1.8.2 2.6.7-.8-.4-1.7-.7-2.6-.7"/><path id="XMLID_602_" class="st15" d="M262.9 101.4v.1-.1"/><path id="XMLID_603_" class="st14" d="M257 97.2h-.4c-4.5.7-9.1 6.7-12.4 12.4 0 .2-.1.3-.2.6 1.5.3 2.8.4 4 .4 7 0 10.2-4 15.7-8.6-.1-.2-.2-.5-.3-.7-1-1.7-2.1-2.8-3.3-3.5-1.3-.3-2.2-.6-3.1-.6"/><path id="XMLID_604_" class="st14" d="M299.3 54.5c-3.6 2.1-1.8 6.9-3.7 9.8-1-2-2.5-2.7-4.1-2.7s-3.4.7-4.9 1.8c0-.5 0-.9.1-1.4-.3.5-.6 1-1.1 1.4l.1.1.1.1c1.6 1.6 3.8 3.1 5.6 3.1.4 0 .8-.1 1.2-.3 1.9-.4 3.5-1.5 4.7-3.1 1.7-2.2 2.6-5.3 2.4-8.5-.1-.1-.2-.2-.4-.3"/><path id="XMLID_607_" class="st21" d="M286.6 61.9c0 .5-.1.9-.1 1.4.1-.5.1-.9.1-1.4m12.7-7.4c-3.6 2.1-1.8 6.9-3.7 9.8-1-2-2.5-2.7-4.1-2.7s-3.4.7-4.9 1.8c1.5-1 3.3-1.8 4.9-1.8s3.1.7 4.1 2.7c1.9-2.9.1-7.8 3.7-9.8"/><path id="XMLID_608_" class="st14" d="M289.3 54.5c-.9.6-1.8 1.4-2.6 2.2-1.2 3.1-2.8 6.1-1.2 8.5.8 1.2 2.9 2 5 2 2.8 0 5.8-1.2 6.7-4-1.2 1.5-2.8 2.6-4.6 3.1-.4.2-.7.3-1.2.3-1.8 0-4-1.5-5.6-3.1l-.1-.1-.1-.1c.4-.4.8-.9 1.1-1.4.2-2.7 1.1-5.2 2.6-7.2v-.2"/><path id="XMLID_619_" class="st21" d="M292.5 66.3c-.4.2-.7.3-1.2.3.5 0 .9-.1 1.2-.3M285.6 63.4l.1.1-.1-.1m11.7-.2c-1.2 1.6-2.8 2.7-4.7 3.1 2-.4 3.5-1.5 4.7-3.1"/><path id="XMLID_620_" class="st14" d="M215.2 133.6c-1.9 1.3-3.6 7.5-4.8 12.2 4.7-1.8 8.5-7.6 6.1-11.5-.2-.3-.7-.5-1.3-.7"/><path id="XMLID_623_" class="st18" d="M432.8 194.5c-.2.8-.5 1.6-.8 2.4v.1-.1c.3-.8.5-1.6.8-2.4m0-.1"/><path id="XMLID_624_" class="st14" d="M427.3 136.5c-1 4.5-4.3 9.5-1.7 13.8 5.8 14.8 6.1 31.6 6 47.7.1-.4.2-.7.4-1.1v-.1c.3-.8.5-1.6.8-2.4 4-13.2 5.5-26.8 5-40.4-4.5-5.3-10.3-10.4-10.5-17.5"/><path id="XMLID_629_" class="st18" d="M235.5 198.4c.8 1.2 2.2 3.4 4 5.9-1.8-2.4-3.2-4.7-4-5.9m-.1 0"/><path id="XMLID_630_" class="st22" d="M225.1 148.5v0"/><path id="XMLID_631_" class="st14" d="M216.6 133.3h-.2c.4.3.8.6 1.2 1 3 7 5 14 0 22-2 3.5-3 6.9-3.2 10.2v.4c-.4 14.2 14.5 26.1 24.2 37.4h.9c-1.7-2.5-3.1-4.7-4-5.9-5.9-8.3-14.1-17.9-14.1-28.6v-.8c.3-6.7 3.7-13.2 3.7-20v-.5c-.1-3.7-3.4-15.2-8.5-15.2"/><path id="XMLID_632_" class="st21" d="M214.4 166.5v0"/></g></g><g><path class="st0 st25" d="M184.8 446.2c-10.4-4.3-20.9-8.6-31.2-13-1.4-.6-3.1-1.5-3.8-2.8-8.1-14.3-16.2-28.6-24-43-.9-1.6-1.1-4.2-.6-6 6.2-23.5 12.6-47 19-70.5.4-1.5 1.7-2.7 2.8-3.9.8-.8 1.9-1.3 2.8-2 9.9-7.7 11.2-7.3 19.1 2.7 4.3 5.5 9.4 10.3 14.5 15.1.8.8 3.7.5 4.9-.4 9.8-7.1 19.3-14.5 29-21.8 1.2-.9 2.5-1.6 3.9-2.5 2.8 3.8 25.5 28 25.5 28s7.5 10.1 8.1 9.8c-.1-1 7.7-15.1 7.7-15.1s13.6 2.8 14.5 2.3c1.1-.5 27.5 14.6 27.5 14.6s-16.1-12.1-13.3-13.3c3.1-1.3 16.4 1.7 16.4 1.7l7.1 11.6 2.2-16.2-2.2-3.4 2.6-5.4 6-.2 19.4 7.8 8.3 2 11 9.5 8.8-11 8.5 9.1 6.5-9.2s6.3 8.7 6.3 9.2 1-20.2 1.8-21c5.1-5.4 10-3.2 15.3-.1 11.5 6.6 22.7-5.6 34.5.8 7.3-6.3 21.8-1.4 21.8-1.4l4.2 8.2 21 66.9c2.3 7.3 4.5 14.6 7 21.8 1.5 4.5-.1 7.1-4.3 8.8-35 14.5-69.9 29-104.9 43.5-27.3 11.3-88.5 36.7-88.5 36.7s-84.4-35.1-115.2-47.9z"/><g id="Layer_8"><g id="XMLID_13_"><path id="XMLID_57_" class="st26" d="M389.5 310.3"/><path id="XMLID_68_" class="st26" d="M389.5 310.3c-.4.3-.7.6-1.1 1 .4-.3.7-.6 1.1-1"/><path id="XMLID_72_" class="st26" d="M391 306.1c-.5 0-2.1 1.7-3.5 3.4l-.1.1-.1.1c-1.4 1.8-2.5 3.6-1.9 3.6.3 0 1.1-.5 2.5-1.7l.2-.2.1-.1c.4-.3.7-.6 1.1-1 1.9-3.1 2.1-4.2 1.7-4.2"/><path id="XMLID_74_" class="st26" d="M389.6 310.3h-.1.1"/><path id="XMLID_75_" class="st26" d="M389.6 310.3h-.1.1"/><path id="XMLID_99_" class="st26" d="M123 297.7h35l13.5 52.4 13.4-52.4h35v86.1h-21.8v-65.6l-16.8 65.6h-19.7l-16.8-65.6v65.6H123z"/><path id="XMLID_114_" class="st26" d="M234.3 359.8l-11-1.1c.4-2 1-3.4 1.8-4.5s2-2.1 3.4-2.8c1-.6 2.5-1 4.4-1.4 1.8-.3 3.8-.4 5.9-.4 3.4 0 6.2.1 8.3.6 2.1.4 3.8 1.1 5.2 2.4 1 .8 1.7 2.1 2.3 3.7.6 1.6.8 3.1.8 4.5V374c0 1.4.1 2.5.3 3.4.1.8.6 1.8 1.1 3.1h-10.7c-.4-.7-.7-1.4-.8-1.8-.1-.4-.3-1-.4-2-1.6 1.4-3 2.5-4.5 3.1-2 .8-4.4 1.3-7.1 1.3-3.5 0-6.4-.8-8.2-2.5-1.8-1.7-2.8-3.7-2.8-6.1 0-2.3.7-4.1 2-5.6 1.3-1.4 3.8-2.5 7.3-3.2 4.4-.8 7.1-1.4 8.3-1.8 1.3-.3 2.7-.8 4.1-1.4 0-1.4-.3-2.4-.8-3-.6-.6-1.6-.8-3.1-.8-1.8 0-3.2.3-4.2.8-.5.1-1.2 1.1-1.6 2.3zm10 6.1c-1.6.6-3.2 1.1-4.9 1.6-2.4.6-3.8 1.3-4.4 1.8-.7.6-1 1.3-1 2.1s.3 1.7 1 2.3c.7.6 1.6.8 2.8.8s2.5-.3 3.5-1c1.1-.6 1.8-1.4 2.4-2.3.4-.8.7-2.1.7-3.5v-1.8h-.1z"/><path id="XMLID_117_" class="st26" d="M272.8 359.8l-11-1.1c.4-2 1-3.4 1.8-4.5s2-2.1 3.4-2.8c1-.6 2.5-1 4.4-1.4 1.8-.3 3.8-.4 5.9-.4 3.4 0 6.2.1 8.3.6 2.1.4 3.8 1.1 5.2 2.4 1 .8 1.7 2.1 2.3 3.7.6 1.6.8 3.1.8 4.5V374c0 1.4.1 2.5.3 3.4.1.8.6 1.8 1.1 3.1h-10.7c-.4-.7-.7-1.4-.8-1.8-.1-.4-.3-1-.4-2-1.6 1.4-3 2.5-4.5 3.1-2 .8-4.4 1.3-7.1 1.3-3.5 0-6.4-.8-8.2-2.5s-2.8-3.7-2.8-6.1c0-2.3.7-4.1 2-5.6 1.3-1.6 3.8-2.5 7.3-3.2 4.4-.8 7.1-1.4 8.3-1.8 1.3-.3 2.7-.8 4.1-1.4 0-1.4-.3-2.4-.8-3-.6-.6-1.6-.8-3.1-.8-1.8 0-3.2.3-4.2.8-.6.1-1.2 1.1-1.6 2.3zm9.9 6.1c-1.6.6-3.2 1.1-4.9 1.6-2.4.6-3.8 1.3-4.4 1.8-.7.6-1 1.3-1 2.1s.3 1.7 1 2.3c.7.6 1.6.8 2.8.8s2.5-.3 3.5-1c1.1-.6 1.8-1.4 2.4-2.3.4-.8.7-2.1.7-3.5v-1.8h-.1z"/><path id="XMLID_118_" class="st26" d="M298.4 350.1h10.7v4.4c1.6-1.8 3.1-3.1 4.7-4 1.6-.7 3.5-1.1 5.6-1.1 2.4 0 4.2.4 5.6 1.3 1.4.8 2.5 2.1 3.4 3.8 1.8-2 3.4-3.2 4.9-4 1.6-.7 3.4-1.1 5.5-1.1 3.2 0 5.8 1 7.5 2.8 1.7 1.8 2.7 4.9 2.7 9v18.9h-11.6V363c0-1.4-.3-2.4-.8-3-.7-1-1.7-1.6-2.8-1.6-1.4 0-2.4.4-3.2 1.4-.8 1-1.3 2.5-1.3 4.7V380h-11.6v-16.5c0-1.3-.1-2.3-.3-2.7-.3-.7-.7-1.4-1.3-1.8-.6-.4-1.3-.7-2.1-.7-1.3 0-2.4.6-3.2 1.6-.8 1-1.3 2.7-1.3 4.9v15.4H298V350h.4z"/><path id="XMLID_121_" class="st26" d="M364.1 359.8l-11-1.1c.4-2 1-3.4 1.8-4.5s2-2.1 3.4-2.8c1-.6 2.5-1 4.4-1.4 1.8-.3 3.8-.4 5.9-.4 3.4 0 6.2.1 8.3.6 2.1.4 3.8 1.1 5.2 2.4 1 .8 1.7 2.1 2.3 3.7.6 1.6.8 3.1.8 4.5V374c0 1.4.1 2.5.3 3.4.1.8.6 1.8 1.1 3.1H376c-.4-.7-.7-1.4-.8-1.8-.1-.4-.3-1-.4-2-1.6 1.4-3 2.5-4.5 3.1-2 .8-4.4 1.3-7.1 1.3-3.5 0-6.4-.8-8.2-2.5-1.8-1.7-2.8-3.7-2.8-6.1 0-2.3.7-4.1 2-5.6 1.3-1.6 3.8-2.5 7.3-3.2 4.4-.8 7.1-1.4 8.3-1.8 1.3-.3 2.7-.8 4.1-1.4 0-1.4-.3-2.4-.8-3-.6-.6-1.6-.8-3.1-.8-1.8 0-3.2.3-4.2.8-.5.1-1.1 1.1-1.7 2.3zm10.1 6.1c-1.6.6-3.2 1.1-4.9 1.6-2.4.6-3.8 1.3-4.4 1.8-.7.6-1 1.3-1 2.1s.3 1.7 1 2.3c.7.6 1.6.8 2.8.8s2.5-.3 3.5-1c1.1-.6 1.8-1.4 2.4-2.3.4-.8.7-2.1.7-3.5v-1.8h-.1z"/><path id="XMLID_124_" class="st26" d="M388.4 383.4v-88h45.3c8.4 0 14.8.7 19.3 2.2s8 4.1 10.8 8c2.7 3.9 4.1 8.7 4.1 14.3 0 4.9-1 9.1-3.1 12.6s-4.9 6.4-8.6 8.6c-2.3 1.4-5.5 2.6-9.6 3.5 3.2 1.1 5.6 2.2 7.1 3.2 1 .7 2.5 2.3 4.4 4.6 1.9 2.4 3.2 4.2 3.8 5.5l13.2 25.5h-30.7l-14.5-26.9c-1.8-3.5-3.5-5.7-4.9-6.8-2-1.4-4.2-2-6.7-2h-2.4v35.7h-27.5zm27.3-52.4h11.5c1.2 0 3.6-.4 7.2-1.2 1.8-.4 3.3-1.3 4.4-2.8 1.1-1.5 1.7-3.2 1.7-5.1 0-2.8-.9-5-2.7-6.5s-5.2-2.3-10.2-2.3h-12l.1 17.9z"/><path id="XMLID_127_" class="st26" d="M222.4 332.2c0-3.3 1.1-6.2 3.4-8.3 2.3-2.2 5.3-3.3 9.3-3.3 4.5 0 7.8 1.3 10 3.9 1.8 2.1 2.7 4.6 2.7 7.6 0 3.4-1.1 6.2-3.4 8.3s-5.4 3.2-9.4 3.2c-3.5 0-6.5-.9-8.7-2.7-2.5-2.2-3.9-5.2-3.9-8.7zm8.6-.1c0 2 .4 3.4 1.3 4.4.8.9 1.8 1.5 3 1.5 1.3 0 2.2-.4 3-1.4.8-.9 1.1-2.4 1.1-4.5 0-1.9-.4-3.3-1.1-4.3-.8-.9-1.8-1.5-2.9-1.5-1.3 0-2.3.5-3 1.5-1 .9-1.4 2.4-1.4 4.3z"/><path id="XMLID_128_" class="st26" d="M254.4 321h7.9v3.7c1.1-1.5 2.4-2.5 3.5-3.1s2.7-.9 4.4-.9c2.4 0 4.2.7 5.5 2.1 1.4 1.4 2 3.5 2 6.5v14.1h-8.6V331c0-1.4-.2-2.4-.7-2.9-.5-.6-1.3-.8-2.2-.8-1 0-1.9.4-2.5 1.1-.6.7-.9 2.2-.9 4.2v10.6h-8.5l.1-22.2z"/><path id="XMLID_129_" class="st26" d="M284.5 337l8.5-.8c.3 1 .8 1.7 1.5 2.2.6.4 1.5.6 2.5.6 1.1 0 2-.2 2.6-.7.5-.3.7-.8.7-1.4 0-.6-.3-1-.9-1.5-.4-.2-1.7-.5-3.7-.8-2.9-.5-5-1-6.2-1.5s-2.1-1.1-2.9-2.2c-.8-1-1.1-2.2-1.1-3.5 0-1.5.4-2.7 1.3-3.8.8-1 2-1.9 3.5-2.4 1.6-.5 3.4-.8 5.9-.8 2.6 0 4.6.2 5.8.6 1.3.4 2.3 1 3.1 1.9s1.6 2 2.1 3.4l-8 .8c-.2-.7-.5-1.3-1-1.6-.6-.4-1.5-.6-2.4-.6s-1.7.2-2.1.5c-.4.3-.6.7-.6 1.3 0 .5.3.9.8 1.3.5.3 1.8.5 3.7.7 2.8.3 4.9.7 6.3 1.4 1.4.6 2.4 1.4 3.1 2.4s1.1 2.2 1.1 3.4c0 1.3-.4 2.5-1.1 3.8-.7 1.3-2 2.2-3.7 2.9-1.7.7-4 1-6.8 1-4.1 0-7-.6-8.7-1.8-1.7-1.1-2.8-2.7-3.3-4.8z"/><path id="XMLID_132_" class="st26" d="M314.6 312.5h8.5v5.7h-8.5v-5.7zm0 8.5h8.5v22.2h-8.5V321z"/><path id="XMLID_135_" class="st26" d="M355.3 334.1h-17c.1 1.4.5 2.4 1.1 3 .8.9 1.9 1.5 3.2 1.5.8 0 1.7-.2 2.4-.6.4-.3.9-.7 1.5-1.4l8.3.7c-1.3 2.2-2.8 3.9-4.6 4.8-1.8.9-4.4 1.5-7.8 1.5-2.9 0-5.2-.4-6.9-1.3-1.7-.8-3.1-2.2-4.2-4-1.1-1.8-1.7-4-1.7-6.4 0-3.4 1.1-6.3 3.3-8.5 2.2-2.2 5.3-3.2 9.2-3.2 3.1 0 5.6.5 7.5 1.5 1.9.9 3.2 2.4 4.2 4.2.9 1.8 1.5 4.2 1.5 7.1v1zm-8.6-4c-.2-1.7-.6-2.8-1.4-3.5-.7-.7-1.7-1-2.8-1-1.4 0-2.4.5-3.2 1.6-.5.6-.8 1.7-.9 3l8.3-.1z"/><path id="XMLID_136_" class="st26" d="M385.4 343.1h-7.9v-3.5c-1.1 1.5-2.4 2.5-3.5 3.1-1.3.6-2.7.9-4.5.9-2.3 0-4.2-.7-5.5-2.1-1.4-1.4-2-3.5-2-6.5v-14h8.6v12.2c0 1.4.2 2.4.7 2.9.5.6 1.3.8 2.2.8 1 0 1.9-.4 2.5-1.1.6-.7.9-2.2.9-4.2V321h8.5v22.1z"/></g></g></g><path class="st27" d="M518 0H80L0 193.3l87.5 211.5L299 492.3l211.5-87.5L598 193.3z"/></g></svg>